<mxfile host="app.diagrams.net" modified="2024-05-15T19:30:31.599Z" agent="Mozilla/5.0 (Windows NT 10.0; Win64; x64) AppleWebKit/537.36 (KHTML, like Gecko) Chrome/124.0.0.0 Safari/537.36" etag="jxTruV2jG3WSkF011MYb" version="24.4.0" type="google" pages="3">
  <diagram name="users" id="wjjhISGNcS8l1g_qM_Am">
    <mxGraphModel dx="1842" dy="1630" grid="0" gridSize="10" guides="1" tooltips="1" connect="1" arrows="1" fold="1" page="0" pageScale="1" pageWidth="827" pageHeight="1169" math="0" shadow="0">
      <root>
        <mxCell id="0" />
        <mxCell id="1" parent="0" />
        <mxCell id="ityiFSxQSLk73gkbh7Ud-1" style="edgeStyle=none;curved=1;rounded=0;orthogonalLoop=1;jettySize=auto;html=1;exitX=0;exitY=0.5;exitDx=0;exitDy=0;fontSize=12;startSize=8;endSize=8;" edge="1" parent="1" source="ityiFSxQSLk73gkbh7Ud-2" target="ityiFSxQSLk73gkbh7Ud-4">
          <mxGeometry relative="1" as="geometry" />
        </mxCell>
        <mxCell id="ityiFSxQSLk73gkbh7Ud-2" value="&lt;font style=&quot;font-size: 16px;&quot;&gt;user 1&lt;/font&gt;" style="ellipse;whiteSpace=wrap;html=1;aspect=fixed;" vertex="1" parent="1">
          <mxGeometry x="90" y="-27" width="80" height="80" as="geometry" />
        </mxCell>
        <mxCell id="ityiFSxQSLk73gkbh7Ud-3" style="edgeStyle=none;curved=1;rounded=0;orthogonalLoop=1;jettySize=auto;html=1;exitX=0.5;exitY=0;exitDx=0;exitDy=0;fontSize=12;startSize=8;endSize=8;" edge="1" parent="1" source="ityiFSxQSLk73gkbh7Ud-4" target="ityiFSxQSLk73gkbh7Ud-18">
          <mxGeometry relative="1" as="geometry" />
        </mxCell>
        <mxCell id="ityiFSxQSLk73gkbh7Ud-4" value="&lt;font style=&quot;font-size: 16px;&quot;&gt;user 2&lt;/font&gt;" style="ellipse;whiteSpace=wrap;html=1;aspect=fixed;" vertex="1" parent="1">
          <mxGeometry x="-25" y="-21" width="80" height="80" as="geometry" />
        </mxCell>
        <mxCell id="ityiFSxQSLk73gkbh7Ud-5" style="edgeStyle=none;curved=1;rounded=0;orthogonalLoop=1;jettySize=auto;html=1;exitX=0.5;exitY=0;exitDx=0;exitDy=0;fontSize=12;startSize=8;endSize=8;" edge="1" parent="1" source="ityiFSxQSLk73gkbh7Ud-7" target="ityiFSxQSLk73gkbh7Ud-2">
          <mxGeometry relative="1" as="geometry" />
        </mxCell>
        <mxCell id="ityiFSxQSLk73gkbh7Ud-6" style="edgeStyle=none;curved=1;rounded=0;orthogonalLoop=1;jettySize=auto;html=1;exitX=0.5;exitY=1;exitDx=0;exitDy=0;fontSize=12;startSize=8;endSize=8;" edge="1" parent="1" source="ityiFSxQSLk73gkbh7Ud-7" target="ityiFSxQSLk73gkbh7Ud-14">
          <mxGeometry relative="1" as="geometry" />
        </mxCell>
        <mxCell id="ityiFSxQSLk73gkbh7Ud-7" value="&lt;font style=&quot;font-size: 16px;&quot;&gt;user 3&lt;/font&gt;" style="ellipse;whiteSpace=wrap;html=1;aspect=fixed;" vertex="1" parent="1">
          <mxGeometry x="247" y="-13" width="80" height="80" as="geometry" />
        </mxCell>
        <mxCell id="ityiFSxQSLk73gkbh7Ud-8" style="edgeStyle=none;curved=1;rounded=0;orthogonalLoop=1;jettySize=auto;html=1;exitX=1;exitY=0.5;exitDx=0;exitDy=0;fontSize=12;startSize=8;endSize=8;" edge="1" parent="1" source="ityiFSxQSLk73gkbh7Ud-9" target="ityiFSxQSLk73gkbh7Ud-4">
          <mxGeometry relative="1" as="geometry" />
        </mxCell>
        <mxCell id="ityiFSxQSLk73gkbh7Ud-9" value="&lt;font style=&quot;font-size: 16px;&quot;&gt;user 4&lt;/font&gt;" style="ellipse;whiteSpace=wrap;html=1;aspect=fixed;" vertex="1" parent="1">
          <mxGeometry x="-191" y="-8" width="80" height="80" as="geometry" />
        </mxCell>
        <mxCell id="ityiFSxQSLk73gkbh7Ud-10" style="edgeStyle=none;curved=1;rounded=0;orthogonalLoop=1;jettySize=auto;html=1;entryX=0;entryY=0.5;entryDx=0;entryDy=0;fontSize=12;startSize=8;endSize=8;" edge="1" parent="1" target="ityiFSxQSLk73gkbh7Ud-9">
          <mxGeometry relative="1" as="geometry">
            <mxPoint x="-237" y="50" as="sourcePoint" />
          </mxGeometry>
        </mxCell>
        <mxCell id="ityiFSxQSLk73gkbh7Ud-11" value="&lt;font style=&quot;font-size: 16px;&quot;&gt;user 5&lt;/font&gt;" style="ellipse;whiteSpace=wrap;html=1;aspect=fixed;" vertex="1" parent="1">
          <mxGeometry x="-312" y="21" width="80" height="80" as="geometry" />
        </mxCell>
        <mxCell id="ityiFSxQSLk73gkbh7Ud-12" style="edgeStyle=none;curved=1;rounded=0;orthogonalLoop=1;jettySize=auto;html=1;exitX=0;exitY=1;exitDx=0;exitDy=0;fontSize=12;startSize=8;endSize=8;" edge="1" parent="1" source="ityiFSxQSLk73gkbh7Ud-14" target="ityiFSxQSLk73gkbh7Ud-15">
          <mxGeometry relative="1" as="geometry" />
        </mxCell>
        <mxCell id="ityiFSxQSLk73gkbh7Ud-13" style="edgeStyle=none;curved=1;rounded=0;orthogonalLoop=1;jettySize=auto;html=1;entryX=0;entryY=1;entryDx=0;entryDy=0;fontSize=12;startSize=8;endSize=8;" edge="1" parent="1" source="ityiFSxQSLk73gkbh7Ud-14" target="ityiFSxQSLk73gkbh7Ud-17">
          <mxGeometry relative="1" as="geometry" />
        </mxCell>
        <mxCell id="ityiFSxQSLk73gkbh7Ud-14" value="&lt;font style=&quot;font-size: 16px;&quot;&gt;user 6&lt;/font&gt;" style="ellipse;whiteSpace=wrap;html=1;aspect=fixed;" vertex="1" parent="1">
          <mxGeometry x="346" y="86" width="80" height="80" as="geometry" />
        </mxCell>
        <mxCell id="ityiFSxQSLk73gkbh7Ud-15" value="&lt;font style=&quot;font-size: 16px;&quot;&gt;user 7&lt;/font&gt;" style="ellipse;whiteSpace=wrap;html=1;aspect=fixed;" vertex="1" parent="1">
          <mxGeometry x="154" y="116" width="80" height="80" as="geometry" />
        </mxCell>
        <mxCell id="ityiFSxQSLk73gkbh7Ud-16" style="edgeStyle=none;curved=1;rounded=0;orthogonalLoop=1;jettySize=auto;html=1;exitX=0;exitY=0.5;exitDx=0;exitDy=0;entryX=1;entryY=0.5;entryDx=0;entryDy=0;fontSize=12;startSize=8;endSize=8;" edge="1" parent="1" source="ityiFSxQSLk73gkbh7Ud-17" target="ityiFSxQSLk73gkbh7Ud-7">
          <mxGeometry relative="1" as="geometry" />
        </mxCell>
        <mxCell id="ityiFSxQSLk73gkbh7Ud-17" value="&lt;font style=&quot;font-size: 16px;&quot;&gt;user 8&lt;/font&gt;" style="ellipse;whiteSpace=wrap;html=1;aspect=fixed;" vertex="1" parent="1">
          <mxGeometry x="466" y="-13" width="80" height="80" as="geometry" />
        </mxCell>
        <mxCell id="ityiFSxQSLk73gkbh7Ud-18" value="&lt;font style=&quot;font-size: 16px;&quot;&gt;user 9&lt;/font&gt;" style="ellipse;whiteSpace=wrap;html=1;aspect=fixed;" vertex="1" parent="1">
          <mxGeometry x="-33" y="-137" width="80" height="80" as="geometry" />
        </mxCell>
        <mxCell id="ityiFSxQSLk73gkbh7Ud-19" style="edgeStyle=none;curved=1;rounded=0;orthogonalLoop=1;jettySize=auto;html=1;exitX=1;exitY=0.5;exitDx=0;exitDy=0;fontSize=12;startSize=8;endSize=8;" edge="1" parent="1" source="ityiFSxQSLk73gkbh7Ud-20" target="ityiFSxQSLk73gkbh7Ud-11">
          <mxGeometry relative="1" as="geometry" />
        </mxCell>
        <mxCell id="ityiFSxQSLk73gkbh7Ud-20" value="&lt;font style=&quot;font-size: 16px;&quot;&gt;user 10&lt;/font&gt;" style="ellipse;whiteSpace=wrap;html=1;aspect=fixed;" vertex="1" parent="1">
          <mxGeometry x="-455" y="53" width="80" height="80" as="geometry" />
        </mxCell>
      </root>
    </mxGraphModel>
  </diagram>
  <diagram id="O23iJcsQ8Xj1wv4ZGPIt" name="posts">
    <mxGraphModel dx="1268" dy="1025" grid="0" gridSize="10" guides="1" tooltips="1" connect="1" arrows="1" fold="1" page="0" pageScale="1" pageWidth="827" pageHeight="1169" math="0" shadow="0">
      <root>
        <mxCell id="0" />
        <mxCell id="1" parent="0" />
        <mxCell id="3fdEOFudgk5UuxMghQ8Q-1" style="edgeStyle=none;curved=1;rounded=0;orthogonalLoop=1;jettySize=auto;html=1;exitX=0.5;exitY=1;exitDx=0;exitDy=0;entryX=0.5;entryY=0;entryDx=0;entryDy=0;fontSize=12;startSize=8;endSize=8;" edge="1" parent="1" source="3fdEOFudgk5UuxMghQ8Q-3" target="3fdEOFudgk5UuxMghQ8Q-12">
          <mxGeometry relative="1" as="geometry" />
        </mxCell>
        <mxCell id="3fdEOFudgk5UuxMghQ8Q-2" style="edgeStyle=none;curved=1;rounded=0;orthogonalLoop=1;jettySize=auto;html=1;exitX=0.5;exitY=1;exitDx=0;exitDy=0;entryX=0.5;entryY=0;entryDx=0;entryDy=0;fontSize=12;startSize=8;endSize=8;" edge="1" parent="1" source="3fdEOFudgk5UuxMghQ8Q-3" target="3fdEOFudgk5UuxMghQ8Q-16">
          <mxGeometry relative="1" as="geometry" />
        </mxCell>
        <mxCell id="3fdEOFudgk5UuxMghQ8Q-3" value="&lt;font style=&quot;font-size: 16px;&quot;&gt;user 1&lt;/font&gt;" style="ellipse;whiteSpace=wrap;html=1;aspect=fixed;" vertex="1" parent="1">
          <mxGeometry x="-217" y="218" width="80" height="80" as="geometry" />
        </mxCell>
        <mxCell id="3fdEOFudgk5UuxMghQ8Q-4" style="edgeStyle=none;curved=1;rounded=0;orthogonalLoop=1;jettySize=auto;html=1;exitX=0.5;exitY=1;exitDx=0;exitDy=0;entryX=0.5;entryY=0;entryDx=0;entryDy=0;fontSize=12;startSize=8;endSize=8;" edge="1" parent="1" source="3fdEOFudgk5UuxMghQ8Q-5" target="3fdEOFudgk5UuxMghQ8Q-12">
          <mxGeometry relative="1" as="geometry" />
        </mxCell>
        <mxCell id="3fdEOFudgk5UuxMghQ8Q-5" value="&lt;font style=&quot;font-size: 16px;&quot;&gt;user 5&lt;/font&gt;" style="ellipse;whiteSpace=wrap;html=1;aspect=fixed;" vertex="1" parent="1">
          <mxGeometry x="-113" y="216" width="80" height="80" as="geometry" />
        </mxCell>
        <mxCell id="3fdEOFudgk5UuxMghQ8Q-6" style="edgeStyle=none;curved=1;rounded=0;orthogonalLoop=1;jettySize=auto;html=1;exitX=0.5;exitY=1;exitDx=0;exitDy=0;entryX=0.5;entryY=0;entryDx=0;entryDy=0;fontSize=12;startSize=8;endSize=8;" edge="1" parent="1" source="3fdEOFudgk5UuxMghQ8Q-7" target="3fdEOFudgk5UuxMghQ8Q-13">
          <mxGeometry relative="1" as="geometry" />
        </mxCell>
        <mxCell id="3fdEOFudgk5UuxMghQ8Q-7" value="&lt;font style=&quot;font-size: 16px;&quot;&gt;user 2&lt;/font&gt;" style="ellipse;whiteSpace=wrap;html=1;aspect=fixed;" vertex="1" parent="1">
          <mxGeometry x="-27" y="795" width="80" height="80" as="geometry" />
        </mxCell>
        <mxCell id="3fdEOFudgk5UuxMghQ8Q-8" style="edgeStyle=none;curved=1;rounded=0;orthogonalLoop=1;jettySize=auto;html=1;exitX=0.5;exitY=1;exitDx=0;exitDy=0;entryX=0.5;entryY=0;entryDx=0;entryDy=0;fontSize=12;startSize=8;endSize=8;" edge="1" parent="1" source="3fdEOFudgk5UuxMghQ8Q-9" target="3fdEOFudgk5UuxMghQ8Q-14">
          <mxGeometry relative="1" as="geometry" />
        </mxCell>
        <mxCell id="3fdEOFudgk5UuxMghQ8Q-9" value="&lt;font style=&quot;font-size: 16px;&quot;&gt;user 3&lt;/font&gt;" style="ellipse;whiteSpace=wrap;html=1;aspect=fixed;" vertex="1" parent="1">
          <mxGeometry x="-184" y="823" width="80" height="80" as="geometry" />
        </mxCell>
        <mxCell id="3fdEOFudgk5UuxMghQ8Q-10" style="edgeStyle=none;curved=1;rounded=0;orthogonalLoop=1;jettySize=auto;html=1;exitX=0.5;exitY=1;exitDx=0;exitDy=0;entryX=0.5;entryY=0;entryDx=0;entryDy=0;fontSize=12;startSize=8;endSize=8;" edge="1" parent="1" source="3fdEOFudgk5UuxMghQ8Q-11" target="3fdEOFudgk5UuxMghQ8Q-12">
          <mxGeometry relative="1" as="geometry" />
        </mxCell>
        <mxCell id="3fdEOFudgk5UuxMghQ8Q-11" value="&lt;font style=&quot;font-size: 16px;&quot;&gt;user 8&lt;/font&gt;" style="ellipse;whiteSpace=wrap;html=1;aspect=fixed;" vertex="1" parent="1">
          <mxGeometry x="6" y="218" width="80" height="80" as="geometry" />
        </mxCell>
        <mxCell id="3fdEOFudgk5UuxMghQ8Q-12" value="&lt;span style=&quot;font-size: 16px;&quot;&gt;post 1&lt;/span&gt;" style="whiteSpace=wrap;html=1;aspect=fixed;" vertex="1" parent="1">
          <mxGeometry x="-127" y="377" width="80" height="80" as="geometry" />
        </mxCell>
        <mxCell id="3fdEOFudgk5UuxMghQ8Q-13" value="&lt;font style=&quot;font-size: 16px;&quot;&gt;post 2&lt;/font&gt;" style="whiteSpace=wrap;html=1;aspect=fixed;" vertex="1" parent="1">
          <mxGeometry x="-27" y="967" width="80" height="80" as="geometry" />
        </mxCell>
        <mxCell id="3fdEOFudgk5UuxMghQ8Q-14" value="&lt;span style=&quot;font-size: 16px;&quot;&gt;post 3&lt;/span&gt;" style="whiteSpace=wrap;html=1;aspect=fixed;" vertex="1" parent="1">
          <mxGeometry x="-184" y="960" width="80" height="80" as="geometry" />
        </mxCell>
        <mxCell id="3fdEOFudgk5UuxMghQ8Q-15" value="&lt;span style=&quot;font-size: 16px;&quot;&gt;post 4&lt;/span&gt;" style="whiteSpace=wrap;html=1;aspect=fixed;" vertex="1" parent="1">
          <mxGeometry x="-270" y="667" width="80" height="80" as="geometry" />
        </mxCell>
        <mxCell id="3fdEOFudgk5UuxMghQ8Q-16" value="&lt;span style=&quot;font-size: 16px;&quot;&gt;post 9&lt;/span&gt;" style="whiteSpace=wrap;html=1;aspect=fixed;" vertex="1" parent="1">
          <mxGeometry x="-283" y="377" width="80" height="80" as="geometry" />
        </mxCell>
        <mxCell id="3fdEOFudgk5UuxMghQ8Q-17" style="edgeStyle=none;curved=1;rounded=0;orthogonalLoop=1;jettySize=auto;html=1;exitX=0.5;exitY=1;exitDx=0;exitDy=0;entryX=0.5;entryY=0;entryDx=0;entryDy=0;fontSize=12;startSize=8;endSize=8;" edge="1" parent="1" source="3fdEOFudgk5UuxMghQ8Q-18" target="3fdEOFudgk5UuxMghQ8Q-14">
          <mxGeometry relative="1" as="geometry" />
        </mxCell>
        <mxCell id="3fdEOFudgk5UuxMghQ8Q-18" value="&lt;font style=&quot;font-size: 16px;&quot;&gt;user 4&lt;/font&gt;" style="ellipse;whiteSpace=wrap;html=1;aspect=fixed;" vertex="1" parent="1">
          <mxGeometry x="-270" y="799" width="80" height="80" as="geometry" />
        </mxCell>
        <mxCell id="3fdEOFudgk5UuxMghQ8Q-19" style="edgeStyle=none;curved=1;rounded=0;orthogonalLoop=1;jettySize=auto;html=1;exitX=0.5;exitY=1;exitDx=0;exitDy=0;entryX=0.5;entryY=0;entryDx=0;entryDy=0;fontSize=12;startSize=8;endSize=8;" edge="1" parent="1" source="3fdEOFudgk5UuxMghQ8Q-20" target="3fdEOFudgk5UuxMghQ8Q-15">
          <mxGeometry relative="1" as="geometry" />
        </mxCell>
        <mxCell id="3fdEOFudgk5UuxMghQ8Q-20" value="&lt;font style=&quot;font-size: 16px;&quot;&gt;user 6&lt;/font&gt;" style="ellipse;whiteSpace=wrap;html=1;aspect=fixed;" vertex="1" parent="1">
          <mxGeometry x="-166" y="508" width="80" height="80" as="geometry" />
        </mxCell>
        <mxCell id="3fdEOFudgk5UuxMghQ8Q-21" style="edgeStyle=none;curved=1;rounded=0;orthogonalLoop=1;jettySize=auto;html=1;exitX=0.5;exitY=1;exitDx=0;exitDy=0;entryX=0.5;entryY=0;entryDx=0;entryDy=0;fontSize=12;startSize=8;endSize=8;" edge="1" parent="1" source="3fdEOFudgk5UuxMghQ8Q-22" target="3fdEOFudgk5UuxMghQ8Q-15">
          <mxGeometry relative="1" as="geometry" />
        </mxCell>
        <mxCell id="3fdEOFudgk5UuxMghQ8Q-22" value="&lt;font style=&quot;font-size: 16px;&quot;&gt;user 7&lt;/font&gt;" style="ellipse;whiteSpace=wrap;html=1;aspect=fixed;" vertex="1" parent="1">
          <mxGeometry x="-280" y="512" width="80" height="80" as="geometry" />
        </mxCell>
        <mxCell id="3fdEOFudgk5UuxMghQ8Q-23" style="edgeStyle=none;curved=1;rounded=0;orthogonalLoop=1;jettySize=auto;html=1;exitX=0.5;exitY=1;exitDx=0;exitDy=0;entryX=0.5;entryY=0;entryDx=0;entryDy=0;fontSize=12;startSize=8;endSize=8;" edge="1" parent="1" source="3fdEOFudgk5UuxMghQ8Q-24" target="3fdEOFudgk5UuxMghQ8Q-15">
          <mxGeometry relative="1" as="geometry" />
        </mxCell>
        <mxCell id="3fdEOFudgk5UuxMghQ8Q-24" value="&lt;font style=&quot;font-size: 16px;&quot;&gt;user 9&lt;/font&gt;" style="ellipse;whiteSpace=wrap;html=1;aspect=fixed;" vertex="1" parent="1">
          <mxGeometry x="-52" y="502" width="80" height="80" as="geometry" />
        </mxCell>
        <mxCell id="3fdEOFudgk5UuxMghQ8Q-25" style="edgeStyle=none;curved=1;rounded=0;orthogonalLoop=1;jettySize=auto;html=1;exitX=0.5;exitY=1;exitDx=0;exitDy=0;entryX=0.5;entryY=0;entryDx=0;entryDy=0;fontSize=12;startSize=8;endSize=8;" edge="1" parent="1" source="3fdEOFudgk5UuxMghQ8Q-26" target="3fdEOFudgk5UuxMghQ8Q-16">
          <mxGeometry relative="1" as="geometry" />
        </mxCell>
        <mxCell id="3fdEOFudgk5UuxMghQ8Q-26" value="&lt;font style=&quot;font-size: 16px;&quot;&gt;user 10&lt;/font&gt;" style="ellipse;whiteSpace=wrap;html=1;aspect=fixed;" vertex="1" parent="1">
          <mxGeometry x="-326" y="212" width="80" height="80" as="geometry" />
        </mxCell>
      </root>
    </mxGraphModel>
  </diagram>
  <diagram id="nTFKId13N2d8Pr6eVkLT" name="groups">
    <mxGraphModel dx="2642" dy="1630" grid="0" gridSize="10" guides="1" tooltips="1" connect="1" arrows="1" fold="1" page="0" pageScale="1" pageWidth="827" pageHeight="1169" math="0" shadow="0">
      <root>
        <mxCell id="0" />
        <mxCell id="1" parent="0" />
        <mxCell id="-nFiyiZIxa65zqL9dgDg-1" style="edgeStyle=none;curved=1;rounded=0;orthogonalLoop=1;jettySize=auto;html=1;exitX=0.5;exitY=1;exitDx=0;exitDy=0;entryX=0.5;entryY=0;entryDx=0;entryDy=0;fontSize=12;startSize=8;endSize=8;" edge="1" parent="1" source="-nFiyiZIxa65zqL9dgDg-3" target="-nFiyiZIxa65zqL9dgDg-12">
          <mxGeometry relative="1" as="geometry" />
        </mxCell>
        <mxCell id="-nFiyiZIxa65zqL9dgDg-2" style="edgeStyle=none;curved=1;rounded=0;orthogonalLoop=1;jettySize=auto;html=1;exitX=0.5;exitY=1;exitDx=0;exitDy=0;entryX=0.5;entryY=0;entryDx=0;entryDy=0;fontSize=12;startSize=8;endSize=8;" edge="1" parent="1" source="-nFiyiZIxa65zqL9dgDg-3" target="-nFiyiZIxa65zqL9dgDg-15">
          <mxGeometry relative="1" as="geometry" />
        </mxCell>
        <mxCell id="-nFiyiZIxa65zqL9dgDg-3" value="&lt;font style=&quot;font-size: 16px;&quot;&gt;user 1&lt;/font&gt;" style="ellipse;whiteSpace=wrap;html=1;aspect=fixed;" vertex="1" parent="1">
          <mxGeometry x="-1064" y="-160" width="80" height="80" as="geometry" />
        </mxCell>
        <mxCell id="-nFiyiZIxa65zqL9dgDg-4" style="edgeStyle=none;curved=1;rounded=0;orthogonalLoop=1;jettySize=auto;html=1;exitX=0.5;exitY=1;exitDx=0;exitDy=0;entryX=0.5;entryY=0;entryDx=0;entryDy=0;fontSize=12;startSize=8;endSize=8;" edge="1" parent="1" source="-nFiyiZIxa65zqL9dgDg-5" target="-nFiyiZIxa65zqL9dgDg-14">
          <mxGeometry relative="1" as="geometry" />
        </mxCell>
        <mxCell id="-nFiyiZIxa65zqL9dgDg-5" value="&lt;font style=&quot;font-size: 16px;&quot;&gt;user 6&lt;/font&gt;" style="ellipse;whiteSpace=wrap;html=1;aspect=fixed;" vertex="1" parent="1">
          <mxGeometry x="-878" y="402" width="80" height="80" as="geometry" />
        </mxCell>
        <mxCell id="-nFiyiZIxa65zqL9dgDg-6" style="edgeStyle=none;curved=1;rounded=0;orthogonalLoop=1;jettySize=auto;html=1;exitX=0.5;exitY=1;exitDx=0;exitDy=0;entryX=0.5;entryY=0;entryDx=0;entryDy=0;fontSize=12;startSize=8;endSize=8;" edge="1" parent="1" source="-nFiyiZIxa65zqL9dgDg-7" target="-nFiyiZIxa65zqL9dgDg-16">
          <mxGeometry relative="1" as="geometry" />
        </mxCell>
        <mxCell id="-nFiyiZIxa65zqL9dgDg-7" value="&lt;font style=&quot;font-size: 16px;&quot;&gt;user 3&lt;/font&gt;" style="ellipse;whiteSpace=wrap;html=1;aspect=fixed;" vertex="1" parent="1">
          <mxGeometry x="-1005" y="407" width="80" height="80" as="geometry" />
        </mxCell>
        <mxCell id="-nFiyiZIxa65zqL9dgDg-8" style="edgeStyle=none;curved=1;rounded=0;orthogonalLoop=1;jettySize=auto;html=1;exitX=0.5;exitY=1;exitDx=0;exitDy=0;entryX=0.5;entryY=0;entryDx=0;entryDy=0;fontSize=12;startSize=8;endSize=8;" edge="1" parent="1" source="-nFiyiZIxa65zqL9dgDg-9" target="-nFiyiZIxa65zqL9dgDg-17">
          <mxGeometry relative="1" as="geometry" />
        </mxCell>
        <mxCell id="-nFiyiZIxa65zqL9dgDg-9" value="&lt;font style=&quot;font-size: 16px;&quot;&gt;user 2&lt;/font&gt;" style="ellipse;whiteSpace=wrap;html=1;aspect=fixed;" vertex="1" parent="1">
          <mxGeometry x="-1191" y="130" width="80" height="80" as="geometry" />
        </mxCell>
        <mxCell id="-nFiyiZIxa65zqL9dgDg-10" value="&lt;span style=&quot;font-size: 16px;&quot;&gt;group 3&lt;/span&gt;" style="whiteSpace=wrap;html=1;aspect=fixed;" vertex="1" parent="1">
          <mxGeometry x="-1013" y="835" width="80" height="80" as="geometry" />
        </mxCell>
        <mxCell id="-nFiyiZIxa65zqL9dgDg-11" value="&lt;span style=&quot;font-size: 16px;&quot;&gt;group 1&lt;/span&gt;" style="whiteSpace=wrap;html=1;aspect=fixed;" vertex="1" parent="1">
          <mxGeometry x="-984" y="279" width="80" height="80" as="geometry" />
        </mxCell>
        <mxCell id="-nFiyiZIxa65zqL9dgDg-12" value="&lt;span style=&quot;font-size: 16px;&quot;&gt;group 6&lt;/span&gt;" style="whiteSpace=wrap;html=1;aspect=fixed;" vertex="1" parent="1">
          <mxGeometry x="-992" y="-25" width="80" height="80" as="geometry" />
        </mxCell>
        <mxCell id="-nFiyiZIxa65zqL9dgDg-13" value="&lt;span style=&quot;font-size: 16px;&quot;&gt;group 7&lt;/span&gt;" style="whiteSpace=wrap;html=1;aspect=fixed;" vertex="1" parent="1">
          <mxGeometry x="-1109" y="835" width="80" height="80" as="geometry" />
        </mxCell>
        <mxCell id="-nFiyiZIxa65zqL9dgDg-14" value="&lt;span style=&quot;font-size: 16px;&quot;&gt;group&amp;nbsp; 4&lt;/span&gt;" style="whiteSpace=wrap;html=1;aspect=fixed;" vertex="1" parent="1">
          <mxGeometry x="-873" y="544" width="80" height="80" as="geometry" />
        </mxCell>
        <mxCell id="-nFiyiZIxa65zqL9dgDg-15" value="&lt;span style=&quot;font-size: 16px;&quot;&gt;group 9&lt;/span&gt;" style="whiteSpace=wrap;html=1;aspect=fixed;" vertex="1" parent="1">
          <mxGeometry x="-1144" y="-15" width="80" height="80" as="geometry" />
        </mxCell>
        <mxCell id="-nFiyiZIxa65zqL9dgDg-16" value="&lt;span style=&quot;font-size: 16px;&quot;&gt;group 5&lt;/span&gt;" style="whiteSpace=wrap;html=1;aspect=fixed;" vertex="1" parent="1">
          <mxGeometry x="-995" y="542" width="80" height="80" as="geometry" />
        </mxCell>
        <mxCell id="-nFiyiZIxa65zqL9dgDg-17" value="&lt;span style=&quot;font-size: 16px;&quot;&gt;group 2&lt;/span&gt;" style="whiteSpace=wrap;html=1;aspect=fixed;" vertex="1" parent="1">
          <mxGeometry x="-1140" y="270" width="80" height="80" as="geometry" />
        </mxCell>
        <mxCell id="-nFiyiZIxa65zqL9dgDg-18" style="edgeStyle=none;curved=1;rounded=0;orthogonalLoop=1;jettySize=auto;html=1;exitX=0.5;exitY=1;exitDx=0;exitDy=0;entryX=0.5;entryY=0;entryDx=0;entryDy=0;fontSize=12;startSize=8;endSize=8;" edge="1" parent="1" source="-nFiyiZIxa65zqL9dgDg-19" target="-nFiyiZIxa65zqL9dgDg-11">
          <mxGeometry relative="1" as="geometry" />
        </mxCell>
        <mxCell id="-nFiyiZIxa65zqL9dgDg-19" value="&lt;font style=&quot;font-size: 16px;&quot;&gt;user 5&lt;/font&gt;" style="ellipse;whiteSpace=wrap;html=1;aspect=fixed;" vertex="1" parent="1">
          <mxGeometry x="-984" y="147" width="80" height="80" as="geometry" />
        </mxCell>
        <mxCell id="-nFiyiZIxa65zqL9dgDg-20" style="edgeStyle=none;curved=1;rounded=0;orthogonalLoop=1;jettySize=auto;html=1;exitX=0.5;exitY=1;exitDx=0;exitDy=0;entryX=0.5;entryY=0;entryDx=0;entryDy=0;fontSize=12;startSize=8;endSize=8;" edge="1" parent="1" source="-nFiyiZIxa65zqL9dgDg-21" target="-nFiyiZIxa65zqL9dgDg-10">
          <mxGeometry relative="1" as="geometry" />
        </mxCell>
        <mxCell id="-nFiyiZIxa65zqL9dgDg-21" value="&lt;font style=&quot;font-size: 16px;&quot;&gt;user 4&lt;/font&gt;" style="ellipse;whiteSpace=wrap;html=1;aspect=fixed;" vertex="1" parent="1">
          <mxGeometry x="-1017" y="694" width="80" height="80" as="geometry" />
        </mxCell>
        <mxCell id="-nFiyiZIxa65zqL9dgDg-22" style="edgeStyle=none;curved=1;rounded=0;orthogonalLoop=1;jettySize=auto;html=1;exitX=0.5;exitY=1;exitDx=0;exitDy=0;entryX=0.5;entryY=0;entryDx=0;entryDy=0;fontSize=12;startSize=8;endSize=8;" edge="1" parent="1" source="-nFiyiZIxa65zqL9dgDg-23" target="-nFiyiZIxa65zqL9dgDg-26">
          <mxGeometry relative="1" as="geometry" />
        </mxCell>
        <mxCell id="-nFiyiZIxa65zqL9dgDg-23" value="&lt;font style=&quot;font-size: 16px;&quot;&gt;user 9&lt;/font&gt;" style="ellipse;whiteSpace=wrap;html=1;aspect=fixed;" vertex="1" parent="1">
          <mxGeometry x="-1140" y="410" width="80" height="80" as="geometry" />
        </mxCell>
        <mxCell id="-nFiyiZIxa65zqL9dgDg-24" style="edgeStyle=none;curved=1;rounded=0;orthogonalLoop=1;jettySize=auto;html=1;exitX=0.5;exitY=1;exitDx=0;exitDy=0;entryX=0.5;entryY=0;entryDx=0;entryDy=0;fontSize=12;startSize=8;endSize=8;" edge="1" parent="1" source="-nFiyiZIxa65zqL9dgDg-25" target="-nFiyiZIxa65zqL9dgDg-13">
          <mxGeometry relative="1" as="geometry" />
        </mxCell>
        <mxCell id="-nFiyiZIxa65zqL9dgDg-25" value="&lt;font style=&quot;font-size: 16px;&quot;&gt;user 8&lt;/font&gt;" style="ellipse;whiteSpace=wrap;html=1;aspect=fixed;" vertex="1" parent="1">
          <mxGeometry x="-1107" y="702" width="80" height="80" as="geometry" />
        </mxCell>
        <mxCell id="-nFiyiZIxa65zqL9dgDg-26" value="&lt;span style=&quot;font-size: 16px;&quot;&gt;group 8&lt;/span&gt;" style="whiteSpace=wrap;html=1;aspect=fixed;" vertex="1" parent="1">
          <mxGeometry x="-1136" y="539" width="80" height="80" as="geometry" />
        </mxCell>
        <mxCell id="-nFiyiZIxa65zqL9dgDg-27" style="edgeStyle=none;curved=1;rounded=0;orthogonalLoop=1;jettySize=auto;html=1;exitX=0.5;exitY=1;exitDx=0;exitDy=0;entryX=0.5;entryY=0;entryDx=0;entryDy=0;fontSize=12;startSize=8;endSize=8;" edge="1" parent="1" source="-nFiyiZIxa65zqL9dgDg-28" target="-nFiyiZIxa65zqL9dgDg-17">
          <mxGeometry relative="1" as="geometry" />
        </mxCell>
        <mxCell id="-nFiyiZIxa65zqL9dgDg-28" value="&lt;font style=&quot;font-size: 16px;&quot;&gt;user 7&lt;/font&gt;" style="ellipse;whiteSpace=wrap;html=1;aspect=fixed;" vertex="1" parent="1">
          <mxGeometry x="-1117" y="130" width="80" height="80" as="geometry" />
        </mxCell>
        <mxCell id="-nFiyiZIxa65zqL9dgDg-29" style="edgeStyle=none;curved=1;rounded=0;orthogonalLoop=1;jettySize=auto;html=1;exitX=0.5;exitY=1;exitDx=0;exitDy=0;entryX=0.5;entryY=0;entryDx=0;entryDy=0;fontSize=12;startSize=8;endSize=8;" edge="1" parent="1" source="-nFiyiZIxa65zqL9dgDg-30" target="-nFiyiZIxa65zqL9dgDg-15">
          <mxGeometry relative="1" as="geometry" />
        </mxCell>
        <mxCell id="-nFiyiZIxa65zqL9dgDg-30" value="&lt;font style=&quot;font-size: 16px;&quot;&gt;user 10&lt;/font&gt;" style="ellipse;whiteSpace=wrap;html=1;aspect=fixed;" vertex="1" parent="1">
          <mxGeometry x="-1224" y="-163" width="80" height="80" as="geometry" />
        </mxCell>
      </root>
    </mxGraphModel>
  </diagram>
</mxfile>
